<svg width="119" height="52" viewBox="0 0 119 52" fill="none" xmlns="http://www.w3.org/2000/svg">
<path d="M9.66324 36.7903C11.3069 36.7903 12.6814 35.6598 13.0246 34.1484H6.30225C6.64511 35.6598 8.01964 36.7903 9.66324 36.7903ZM25.9411 36.7903C27.5844 36.7903 28.9591 35.6598 29.3022 34.1484H22.5794C22.9226 35.6598 24.2972 36.7903 25.9411 36.7903ZM23.4798 33.8373L25.8418 26.6417L28.2034 33.8373H28.6065L26.0244 25.9707H25.6592L23.0776 33.8373H23.4798ZM7.20212 33.8373L9.56417 26.6417L11.9259 33.8373H12.3287L9.74658 25.9707H9.38148L6.79971 33.8373H7.20212ZM18.9532 19.2921V11.9959C19.3704 11.6655 19.6377 11.1595 19.6377 10.5924C19.6377 9.59752 18.8161 8.79102 17.8021 8.79102C16.7883 8.79102 15.9665 9.59752 15.9665 10.5924C15.9665 11.1595 16.2338 11.6655 16.651 11.9959V19.2921L17.8021 18.9603L18.9532 19.2921ZM9.78422 22.9092C9.05159 23.1169 8.45258 22.5577 8.74482 21.8261L6.60437 21.0053C5.62608 23.4556 7.85544 25.7961 10.4138 25.0719L14.517 23.9106L13.5 44.126L17.8021 46.5798L22 44.126L21.0873 23.9106L25.1905 25.0719C27.7483 25.7961 29.9783 23.4552 28.9998 21.0053L26.8592 21.8261C27.1514 22.5577 26.5521 23.1169 25.8198 22.9092L18.6573 20.8812L19.3022 40.6906L17.8021 41.0838L15.8022 40.6906L16.9463 20.8812L9.78422 22.9092Z" fill="#0D4D9C"/>
<mask id="mask0_1001_352" style="mask-type:luminance" maskUnits="userSpaceOnUse" x="0" y="5" width="36" height="43">
<path d="M35.3837 18.434C35.3837 17.2984 35.4374 16.4 35.0243 15.2864C34.5734 14.0675 33.7111 13.1192 32.5635 12.4741L21.0104 5.9758C18.9309 4.80615 16.4556 4.80615 14.3747 5.9758L2.82024 12.4741C0.360848 13.8587 0 15.7803 0 18.2677V25.9522C0 27.1643 0.0346295 28.3812 0.138518 29.5886C0.359108 32.1159 0.873015 34.5243 2.26858 36.7081C2.9165 37.7235 3.70294 38.5696 4.61924 39.3584C7.69192 42.0023 12.3001 44.1574 15.8946 46.1786L17.6192 47.1478L21.8917 44.7471C24.3622 43.3602 26.9428 42.11 29.2699 40.5004C33.0663 37.8733 34.6115 34.9298 35.1538 30.4871C35.3367 28.9827 35.3837 27.4653 35.3837 25.9522V18.4357V18.434ZM1.72144 26.7909V21.6758H1.72594V18.266C1.72594 16.4159 1.81736 14.9784 3.68424 13.9278L15.237 7.4295C16.7835 6.55877 18.6016 6.55877 20.1495 7.4295L31.7026 13.9278C32.4974 14.3748 33.0899 15.0108 33.4019 15.8562C33.7267 16.7323 33.6606 17.5332 33.6606 18.434V25.9508C33.6606 27.3961 33.6166 28.8505 33.4414 30.2873C32.9576 34.2578 31.668 36.7806 28.2736 39.1287C25.9971 40.7031 23.4494 41.9342 21.0326 43.2911L17.6209 45.207L16.7586 44.7225C14.9378 43.6979 13.0803 42.7334 11.2612 41.7014C9.4369 40.6664 7.3432 39.4576 5.76201 38.0967C4.97211 37.4162 4.29268 36.6936 3.73445 35.8174C2.49229 33.8729 2.05561 31.6928 1.85996 29.4443C1.78446 28.5627 1.7481 27.6748 1.7339 26.7895H1.72455L1.72144 26.7909Z" fill="white"/>
</mask>
<g mask="url(#mask0_1001_352)">
<path d="M35.3839 18.4339C35.3839 17.2983 35.438 16.4 35.0249 15.2863C34.574 14.0675 33.711 13.1191 32.5639 12.4741L21.0105 5.9757C18.9308 4.80605 16.4562 4.80605 14.3748 5.9757L2.82052 12.4741C0.361223 13.8586 0.000488281 15.7803 0.000488281 18.2676V25.9521C0.000488281 27.1642 0.0347649 28.3811 0.138476 29.5886C0.359425 32.1158 0.873462 34.5242 2.2686 36.7079C2.91701 37.7235 3.70341 38.5696 4.61967 39.3583C7.69222 42.0022 12.3006 44.1573 15.8953 46.1785L17.6196 47.1477L21.8925 44.747C24.3626 43.3602 26.9427 42.1099 29.2704 40.5003C33.0662 37.8732 34.6119 34.9297 35.1539 30.487C35.337 28.9826 35.3839 27.4652 35.3839 25.9521V18.4357V18.4339ZM1.72209 26.7908V21.6757H1.7266V18.2659C1.7266 16.4158 1.81768 14.9783 3.68447 13.9278L15.2369 7.42948C16.7836 6.55872 18.6017 6.55872 20.1501 7.42948L31.7026 13.9278C32.498 14.3748 33.0905 15.0107 33.4026 15.8562C33.7272 16.7323 33.6605 17.5332 33.6605 18.4339V25.9507C33.6605 27.396 33.6172 28.8504 33.4413 30.2872C32.958 34.2577 31.6683 36.7805 28.2738 39.1286C25.9976 40.703 23.4499 41.9341 21.033 43.2909L17.6214 45.2068L16.7592 44.7224C14.9384 43.6978 13.0807 42.7333 11.2617 41.7013C9.43726 40.6663 7.34321 39.4575 5.7623 38.0966C4.97229 37.4161 4.29321 36.6934 3.73498 35.8173C2.49226 33.8728 2.05577 31.6927 1.86007 29.4441C1.78522 28.5627 1.74824 27.6747 1.73381 26.7894H1.72479L1.72209 26.7908Z" fill="#0D4D9C"/>
</g>
<path d="M46.0401 15.9532C46.3881 15.3862 46.8391 14.9416 47.3933 14.6194C47.9603 14.2972 48.6047 14.1361 49.3263 14.1361V16.9778H48.6111C47.7605 16.9778 47.1162 17.1775 46.678 17.577C46.2528 17.9765 46.0401 18.6724 46.0401 19.6647V25H43.3338V14.2908H46.0401V15.9532ZM60.2926 14.2908V25H57.567V23.6469C57.219 24.1108 56.7615 24.4781 56.1945 24.7487C55.6403 25.0064 55.0346 25.1353 54.3774 25.1353C53.5397 25.1353 52.7987 24.9613 52.1544 24.6134C51.51 24.2525 51.001 23.7306 50.6272 23.0476C50.2664 22.3517 50.086 21.5269 50.086 20.5733V14.2908H52.7923V20.1867C52.7923 21.0372 53.0049 21.6944 53.4302 22.1584C53.8555 22.6094 54.4354 22.835 55.1699 22.835C55.9174 22.835 56.5038 22.6094 56.929 22.1584C57.3543 21.6944 57.567 21.0372 57.567 20.1867V14.2908H60.2926ZM61.3003 19.6067C61.3003 18.5242 61.513 17.5641 61.9383 16.7265C62.3764 15.8888 62.9628 15.2444 63.6974 14.7934C64.4448 14.3423 65.276 14.1168 66.191 14.1168C66.99 14.1168 67.6859 14.2779 68.2787 14.6001C68.8844 14.9223 69.3677 15.3282 69.7285 15.8179V14.2908H72.4542V25H69.7285V23.4342C69.3806 23.9368 68.8973 24.3556 68.2787 24.6907C67.673 25.0129 66.9707 25.174 66.1717 25.174C65.2696 25.174 64.4448 24.942 63.6974 24.4781C62.9628 24.0141 62.3764 23.3633 61.9383 22.5257C61.513 21.6751 61.3003 20.7021 61.3003 19.6067ZM69.7285 19.6454C69.7285 18.9882 69.5997 18.4276 69.3419 17.9636C69.0842 17.4868 68.7362 17.126 68.2981 16.8811C67.8599 16.6234 67.3895 16.4945 66.8869 16.4945C66.3843 16.4945 65.9204 16.6169 65.4951 16.8618C65.0698 17.1066 64.7219 17.4675 64.4513 17.9443C64.1935 18.4082 64.0646 18.9624 64.0646 19.6067C64.0646 20.2511 64.1935 20.8181 64.4513 21.3078C64.7219 21.7847 65.0698 22.1519 65.4951 22.4097C65.9333 22.6674 66.3972 22.7963 66.8869 22.7963C67.3895 22.7963 67.8599 22.6739 68.2981 22.429C68.7362 22.1713 69.0842 21.8104 69.3419 21.3465C69.5997 20.8697 69.7285 20.3026 69.7285 19.6454ZM80.0653 14.1361C81.3411 14.1361 82.3721 14.5421 83.1582 15.354C83.9443 16.153 84.3374 17.2742 84.3374 18.7175V25H81.6311V19.0848C81.6311 18.2343 81.4185 17.5835 80.9932 17.1324C80.5679 16.6685 79.988 16.4365 79.2534 16.4365C78.506 16.4365 77.9132 16.6685 77.475 17.1324C77.0497 17.5835 76.8371 18.2343 76.8371 19.0848V25H74.1308V14.2908H76.8371V15.6246C77.1979 15.1607 77.6554 14.7998 78.2096 14.5421C78.7766 14.2715 79.3952 14.1361 80.0653 14.1361ZM90.1392 14.1168C90.9382 14.1168 91.6405 14.2779 92.2462 14.6001C92.8519 14.9094 93.3288 15.3153 93.6767 15.8179V14.2908H96.4023V25.0773C96.4023 26.0696 96.2026 26.9524 95.8031 27.7256C95.4036 28.5117 94.8043 29.1303 94.0053 29.5814C93.2063 30.0453 92.2398 30.2773 91.1057 30.2773C89.585 30.2773 88.335 29.9229 87.3556 29.2141C86.389 28.5053 85.8413 27.5388 85.7125 26.3145H88.3994C88.5412 26.8042 88.844 27.1908 89.308 27.4743C89.7848 27.7707 90.3583 27.9189 91.0284 27.9189C91.8145 27.9189 92.4524 27.6805 92.9421 27.2037C93.4318 26.7398 93.6767 26.031 93.6767 25.0773V23.4149C93.3288 23.9175 92.8455 24.3363 92.2269 24.6714C91.6212 25.0064 90.9253 25.174 90.1392 25.174C89.2371 25.174 88.4123 24.942 87.6649 24.4781C86.9174 24.0141 86.3246 23.3633 85.8864 22.5257C85.4612 21.6751 85.2485 20.7021 85.2485 19.6067C85.2485 18.5242 85.4612 17.5641 85.8864 16.7265C86.3246 15.8888 86.911 15.2444 87.6455 14.7934C88.393 14.3423 89.2242 14.1168 90.1392 14.1168ZM93.6767 19.6454C93.6767 18.9882 93.5478 18.4276 93.2901 17.9636C93.0323 17.4868 92.6844 17.126 92.2462 16.8811C91.8081 16.6234 91.3377 16.4945 90.8351 16.4945C90.3325 16.4945 89.8686 16.6169 89.4433 16.8618C89.018 17.1066 88.6701 17.4675 88.3994 17.9443C88.1417 18.4082 88.0128 18.9624 88.0128 19.6067C88.0128 20.2511 88.1417 20.8181 88.3994 21.3078C88.6701 21.7847 89.018 22.1519 89.4433 22.4097C89.8814 22.6674 90.3454 22.7963 90.8351 22.7963C91.3377 22.7963 91.8081 22.6739 92.2462 22.429C92.6844 22.1713 93.0323 21.8104 93.2901 21.3465C93.5478 20.8697 93.6767 20.3026 93.6767 19.6454Z" fill="#0D4D9C"/>
<path d="M49.365 30.1361C50.1769 30.1361 50.8986 30.3166 51.53 30.6774C52.1615 31.0254 52.6512 31.5473 52.9992 32.2432C53.36 32.9262 53.5404 33.751 53.5404 34.7175V41H50.8341V35.0848C50.8341 34.2343 50.6215 33.5835 50.1962 33.1324C49.7709 32.6685 49.191 32.4365 48.4565 32.4365C47.709 32.4365 47.1162 32.6685 46.678 33.1324C46.2528 33.5835 46.0401 34.2343 46.0401 35.0848V41H43.3338V26.6953H46.0401V31.6246C46.3881 31.1607 46.852 30.7998 47.4319 30.5421C48.0118 30.2715 48.6562 30.1361 49.365 30.1361ZM65.2574 30.2908V41H62.5318V39.6469C62.1838 40.1108 61.7263 40.4781 61.1593 40.7487C60.6051 41.0064 59.9995 41.1353 59.3422 41.1353C58.5045 41.1353 57.7635 40.9613 57.1192 40.6134C56.4748 40.2525 55.9658 39.7306 55.5921 39.0476C55.2312 38.3517 55.0508 37.5269 55.0508 36.5733V30.2908H57.7571V36.1867C57.7571 37.0372 57.9697 37.6944 58.395 38.1584C58.8203 38.6094 59.4002 38.835 60.1348 38.835C60.8822 38.835 61.4686 38.6094 61.8939 38.1584C62.3191 37.6944 62.5318 37.0372 62.5318 36.1867V30.2908H65.2574ZM73.3015 41L69.6674 36.438V41H66.9611V26.6953H69.6674V34.8335L73.2629 30.2908H76.7811L72.0644 35.6647L76.8197 41H73.3015ZM87.3933 30.2908V41H84.6677V39.6469C84.3197 40.1108 83.8622 40.4781 83.2952 40.7487C82.7411 41.0064 82.1354 41.1353 81.4781 41.1353C80.6405 41.1353 79.8994 40.9613 79.2551 40.6134C78.6107 40.2525 78.1017 39.7306 77.728 39.0476C77.3671 38.3517 77.1867 37.5269 77.1867 36.5733V30.2908H79.893V36.1867C79.893 37.0372 80.1056 37.6944 80.5309 38.1584C80.9562 38.6094 81.5361 38.835 82.2707 38.835C83.0181 38.835 83.6045 38.6094 84.0298 38.1584C84.4551 37.6944 84.6677 37.0372 84.6677 36.1867V30.2908H87.3933ZM102.397 30.1361C103.711 30.1361 104.768 30.5421 105.567 31.354C106.379 32.153 106.785 33.2742 106.785 34.7175V41H104.078V35.0848C104.078 34.2471 103.866 33.6092 103.44 33.1711C103.015 32.72 102.435 32.4945 101.701 32.4945C100.966 32.4945 100.38 32.72 99.9415 33.1711C99.5162 33.6092 99.3036 34.2471 99.3036 35.0848V41H96.5973V35.0848C96.5973 34.2471 96.3847 33.6092 95.9594 33.1711C95.5341 32.72 94.9542 32.4945 94.2196 32.4945C93.4722 32.4945 92.8794 32.72 92.4412 33.1711C92.0159 33.6092 91.8033 34.2471 91.8033 35.0848V41H89.097V30.2908H91.8033V31.5859C92.1512 31.1349 92.5958 30.7805 93.1371 30.5228C93.6913 30.265 94.2969 30.1361 94.9542 30.1361C95.7919 30.1361 96.5393 30.3166 97.1966 30.6774C97.8538 31.0254 98.3628 31.528 98.7237 32.1852C99.0716 31.5666 99.5742 31.0705 100.231 30.6967C100.902 30.323 101.623 30.1361 102.397 30.1361Z" fill="#FC9E1C"/>
</svg>
